<svg width="60" height="60" viewBox="0 0 60 60" fill="none" xmlns="http://www.w3.org/2000/svg">
<path d="M15 47.5V50C15 50.7083 14.7608 51.3017 14.2825 51.78C13.8025 52.26 13.2083 52.5 12.5 52.5H10C9.29167 52.5 8.69833 52.26 8.22 51.78C7.74 51.3017 7.5 50.7083 7.5 50V30L12.75 15C13 14.25 13.4483 13.6458 14.095 13.1875C14.74 12.7292 15.4583 12.5 16.25 12.5H43.75C44.5417 12.5 45.2608 12.7292 45.9075 13.1875C46.5525 13.6458 47 14.25 47.25 15L52.5 30V50C52.5 50.7083 52.26 51.3017 51.78 51.78C51.3017 52.26 50.7083 52.5 50 52.5H47.5C46.7917 52.5 46.1983 52.26 45.72 51.78C45.24 51.3017 45 50.7083 45 50V47.5H15ZM14.5 25H45.5L42.875 17.5H17.125L14.5 25ZM18.75 40C19.7917 40 20.6767 39.635 21.405 38.905C22.135 38.1767 22.5 37.2917 22.5 36.25C22.5 35.2083 22.135 34.3233 21.405 33.595C20.6767 32.865 19.7917 32.5 18.75 32.5C17.7083 32.5 16.8233 32.865 16.095 33.595C15.365 34.3233 15 35.2083 15 36.25C15 37.2917 15.365 38.1767 16.095 38.905C16.8233 39.635 17.7083 40 18.75 40ZM41.25 40C42.2917 40 43.1767 39.635 43.905 38.905C44.635 38.1767 45 37.2917 45 36.25C45 35.2083 44.635 34.3233 43.905 33.595C43.1767 32.865 42.2917 32.5 41.25 32.5C40.2083 32.5 39.3233 32.865 38.595 33.595C37.865 34.3233 37.5 35.2083 37.5 36.25C37.5 37.2917 37.865 38.1767 38.595 38.905C39.3233 39.635 40.2083 40 41.25 40Z" fill="white"/>
</svg>
